<svg viewBox="0 0 680 126" fill="none" xmlns="http://www.w3.org/2000/svg">
<g clip-path="url(#clip0_11_3)">
<path d="M102.375 70.6535C109.263 70.6535 115.585 72.9309 120.773 76.6853C124.226 69.3468 125.956 61.3955 125.956 53.4466C125.956 28.0744 106.423 -0.22641 72.6764 -0.22641C57.9256 -0.22641 43.0467 5.60847 31.9479 16.7418L18.4964 30.2277C18.115 30.8355 17.8615 31.0324 17.5071 31.623L74.2809 88.3969C79.4391 78.0609 90.0211 70.6535 102.375 70.6535ZM71.441 96.4934L12.723 37.7754C9.53367 43.3617 7.94883 49.0711 7.94883 54.6082C7.94883 62.1214 10.8306 69.3591 16.3874 74.9306L25.3944 83.9623L2.66027 103.975C0.894059 105.514 0 107.671 0 109.834C0 111.809 0.746156 113.789 2.2552 115.307L10.6347 123.724C12.1469 125.24 14.1194 125.989 16.0857 125.989C18.2387 125.989 20.3849 125.091 21.9181 123.316L41.8591 100.467L50.7061 109.336C56.5189 115.163 64.0961 118.006 71.7152 118.006C72.8305 118.006 73.9805 117.94 75.0916 117.819C72.4928 113.239 70.8785 108.002 70.8785 102.362C70.875 100.431 70.8996 98.5605 71.441 96.4934ZM102.154 78.75C89.113 78.75 78.531 89.1105 78.531 102.154C78.531 114.975 89.1106 125.776 102.154 125.776C114.975 125.776 125.776 115.416 125.776 102.154C125.779 89.332 115.196 78.75 102.154 78.75Z" fill="#3B82F6"/>
</g>
<path d="M164.281 88V81.5938L169.031 80.5938V51H162L161.719 55.9062H153.438V42.5H195.719V55.9062H187.344L187.094 51H180V80.5938L184.75 81.5938V88H164.281ZM190.969 88V78.9375H201.875V88H190.969ZM215.406 88V81.5938L220.156 80.5938V51H213.125L212.844 55.9062H204.562V42.5H246.844V55.9062H238.469L238.219 51H231.125V80.5938L235.875 81.5938V88H215.406ZM242.094 88V78.9375H253V88H242.094ZM274.281 88L260.031 49.4375L255.719 48.9375V42.5H276.125V48.9375L272.062 49.5625L280.219 75.125L280.656 76.9062H280.844L281.25 75.2188L289.156 49.5625L284.281 48.9375V42.5H303.344V48.9375L298.906 49.4375L286.156 88H274.281ZM300.906 88V78.9375H311.812V88H300.906ZM330.625 88V81.5938L335.312 80.5938V49.9375L330.625 48.9375V42.5H335.312H352.094L363.094 72.4688H363.281L373.969 42.5H395.188V48.9375L390.469 49.9375V80.5938L395.188 81.5938V88H374.812V81.5938L379.719 80.5938V74.6562L379.969 53.25L379.781 53.2188L366.906 88H358.281L345.219 53.625L345 53.6562L345.75 73.1562V80.5938L351.031 81.5938V88H330.625ZM414.25 88.6562C410.938 88.6562 408.042 87.9479 405.562 86.5312C403.104 85.0938 401.188 83.1354 399.812 80.6562C398.458 78.1771 397.781 75.375 397.781 72.25V71.0938C397.781 67.6562 398.385 64.6146 399.594 61.9688C400.802 59.3229 402.573 57.2604 404.906 55.7812C407.24 54.2812 410.104 53.5417 413.5 53.5625C416.562 53.5625 419.146 54.1562 421.25 55.3438C423.375 56.5104 424.99 58.2396 426.094 60.5312C427.198 62.8021 427.75 65.6042 427.75 68.9375V74.5938H409.156L409.125 74.8125C409.292 75.875 409.646 76.8229 410.188 77.6562C410.75 78.4688 411.521 79.1146 412.5 79.5938C413.479 80.0729 414.688 80.3125 416.125 80.3125C417.542 80.3125 418.927 80.1562 420.281 79.8438C421.656 79.5104 423.104 78.9896 424.625 78.2812L427.125 84.9062C425.604 85.9896 423.75 86.8854 421.562 87.5938C419.375 88.3021 416.938 88.6562 414.25 88.6562ZM409.156 67.8125H417.75V67C417.75 65.7917 417.625 64.7812 417.375 63.9688C417.146 63.1562 416.74 62.5417 416.156 62.125C415.573 61.7083 414.771 61.5 413.75 61.5C412.646 61.5 411.76 61.7708 411.094 62.3125C410.448 62.8333 409.969 63.5625 409.656 64.5C409.365 65.4167 409.156 66.4688 409.031 67.6562L409.156 67.8125ZM432.781 88V81.5938L436.719 80.5938V61.625L432.031 60.625V54.1875H447.062L447.312 58.3125L447.375 59.1562C448.125 57.2396 449.052 55.8333 450.156 54.9375C451.281 54.0208 452.677 53.5625 454.344 53.5625C454.802 53.5625 455.344 53.6042 455.969 53.6875C456.594 53.75 457.229 53.875 457.875 54.0625L456.781 64.125L452.094 63.9062C451.01 63.8646 450.156 63.9896 449.531 64.2812C448.927 64.5521 448.312 65.0104 447.688 65.6562V80.5938L451.625 81.5938V88H432.781ZM470.969 88L463.75 61.5938L459.406 60.625V54.1875H477.219V60.5938L474.031 61.2812L476.219 72.125L476.562 73.8438H476.75L477.281 72.125L483.938 54.1875H490.656L497.219 72.5938L497.688 74.0938H497.875L498.281 72.5938L501.312 61.3438L497.562 60.5938V54.1875H515.031V60.625L510.969 61.5312L502.469 88H493.656L487.875 73.4688L487.094 70.8125H486.906L486.156 73.5L480.812 88H470.969ZM533.625 88.6562C530.312 88.6562 527.417 87.9479 524.938 86.5312C522.479 85.0938 520.562 83.1354 519.188 80.6562C517.833 78.1771 517.156 75.375 517.156 72.25V71.0938C517.156 67.6562 517.76 64.6146 518.969 61.9688C520.177 59.3229 521.948 57.2604 524.281 55.7812C526.615 54.2812 529.479 53.5417 532.875 53.5625C535.938 53.5625 538.521 54.1562 540.625 55.3438C542.75 56.5104 544.365 58.2396 545.469 60.5312C546.573 62.8021 547.125 65.6042 547.125 68.9375V74.5938H528.531L528.5 74.8125C528.667 75.875 529.021 76.8229 529.562 77.6562C530.125 78.4688 530.896 79.1146 531.875 79.5938C532.854 80.0729 534.062 80.3125 535.5 80.3125C536.917 80.3125 538.302 80.1562 539.656 79.8438C541.031 79.5104 542.479 78.9896 544 78.2812L546.5 84.9062C544.979 85.9896 543.125 86.8854 540.938 87.5938C538.75 88.3021 536.312 88.6562 533.625 88.6562ZM528.531 67.8125H537.125V67C537.125 65.7917 537 64.7812 536.75 63.9688C536.521 63.1562 536.115 62.5417 535.531 62.125C534.948 61.7083 534.146 61.5 533.125 61.5C532.021 61.5 531.135 61.7708 530.469 62.3125C529.823 62.8333 529.344 63.5625 529.031 64.5C528.74 65.4167 528.531 66.4688 528.406 67.6562L528.531 67.8125ZM565.938 88.6562C563.271 88.6562 560.781 88.4167 558.469 87.9375C556.177 87.4375 554.104 86.7604 552.25 85.9062L552.125 75.375H559.531L560.781 80.2812C561.219 80.5521 561.781 80.7917 562.469 81C563.156 81.1875 563.979 81.2812 564.938 81.2812C566.708 81.2812 567.927 81.0417 568.594 80.5625C569.26 80.0833 569.594 79.4792 569.594 78.75C569.594 78.0417 569.208 77.3958 568.438 76.8125C567.688 76.2083 566.073 75.6771 563.594 75.2188C559.635 74.4479 556.719 73.1354 554.844 71.2812C552.969 69.4062 552.031 67.0729 552.031 64.2812C552.031 62.3854 552.469 60.6354 553.344 59.0312C554.219 57.4271 555.646 56.1354 557.625 55.1562C559.625 54.1562 562.292 53.6562 565.625 53.6562C568.167 53.6562 570.583 53.875 572.875 54.3125C575.188 54.75 577.083 55.3021 578.562 55.9688L578.531 66.1562H571.156L570.219 61.7812C569.74 61.4479 569.198 61.1979 568.594 61.0312C567.99 60.8646 567.312 60.7812 566.562 60.7812C565.167 60.7812 564.146 61.0312 563.5 61.5312C562.854 62.0312 562.531 62.6771 562.531 63.4688C562.531 63.9271 562.667 64.3854 562.938 64.8438C563.229 65.3021 563.792 65.7396 564.625 66.1562C565.458 66.5729 566.677 66.9583 568.281 67.3125C572.135 68.1667 575.031 69.3542 576.969 70.875C578.927 72.3958 579.906 74.7083 579.906 77.8125C579.906 81.1458 578.708 83.7917 576.312 85.75C573.938 87.6875 570.479 88.6562 565.938 88.6562ZM597.625 88.7188C594.083 88.7188 591.385 87.7812 589.531 85.9062C587.698 84.0104 586.781 81.0208 586.781 76.9375V61.75H582.562V54.1875H586.781V45.8438H597.688V54.1875H603.219V61.75H597.688V76.9062C597.688 78.0104 597.938 78.7812 598.438 79.2188C598.938 79.6562 599.625 79.875 600.5 79.875C600.875 79.875 601.25 79.8542 601.625 79.8125C602 79.7708 602.375 79.7188 602.75 79.6562L603.5 87.8438C602.542 88.1146 601.573 88.3229 600.594 88.4688C599.635 88.6354 598.646 88.7188 597.625 88.7188ZM618.125 88.6562C614.854 88.6562 612.188 87.7292 610.125 85.875C608.062 84.0208 607.031 81.5521 607.031 78.4688C607.031 76.3646 607.594 74.5 608.719 72.875C609.865 71.25 611.573 69.9792 613.844 69.0625C616.135 68.125 619 67.6562 622.438 67.6562H625.969V65.6562C625.969 64.3021 625.583 63.1562 624.812 62.2188C624.042 61.2604 622.823 60.7812 621.156 60.7812C620.448 60.7812 619.781 60.875 619.156 61.0625C618.552 61.2292 618 61.4792 617.5 61.8125L616.75 66.125H609.031L608.875 56.7188C610.792 55.8646 612.792 55.125 614.875 54.5C616.979 53.875 619.323 53.5625 621.906 53.5625C626.51 53.5625 630.167 54.625 632.875 56.75C635.583 58.8542 636.938 61.8646 636.938 65.7812V78.25C636.938 78.7292 636.938 79.1979 636.938 79.6562C636.958 80.1146 637.01 80.5521 637.094 80.9688L640.75 81.5938V88H627.938C627.667 87.625 627.375 87.125 627.062 86.5C626.75 85.875 626.531 85.25 626.406 84.625C625.385 85.8958 624.24 86.8854 622.969 87.5938C621.698 88.3021 620.083 88.6562 618.125 88.6562ZM621.5 80.9062C622.292 80.9062 623.083 80.75 623.875 80.4375C624.688 80.1042 625.385 79.6146 625.969 78.9688V74.0938H622.562C621.083 74.0938 619.938 74.4167 619.125 75.0625C618.333 75.7083 617.938 76.5625 617.938 77.625C617.938 78.6458 618.271 79.4479 618.938 80.0312C619.604 80.6146 620.458 80.9062 621.5 80.9062ZM655.906 88.6562C653.26 88.6562 650.979 87.9583 649.062 86.5625C647.167 85.1667 645.708 83.2083 644.688 80.6875C643.688 78.1458 643.188 75.1875 643.188 71.8125V71.1562C643.188 67.6354 643.698 64.5625 644.719 61.9375C645.74 59.2917 647.188 57.2396 649.062 55.7812C650.958 54.3021 653.198 53.5625 655.781 53.5625C657.573 53.5625 659.115 53.9375 660.406 54.6875C661.719 55.4167 662.865 56.4479 663.844 57.7812V46.6875L659.094 45.6875V39.25H663.844H674.812V80.5938L678.75 81.5938V88H665.312L664.5 83.8125C663.479 85.3958 662.271 86.6042 660.875 87.4375C659.479 88.25 657.823 88.6562 655.906 88.6562ZM659.312 80.25C660.229 80.25 661.083 80.0729 661.875 79.7188C662.667 79.3646 663.323 78.8333 663.844 78.125V64.5938C663.323 63.7396 662.677 63.0938 661.906 62.6562C661.156 62.1979 660.312 61.9688 659.375 61.9688C658.125 61.9688 657.115 62.3542 656.344 63.125C655.573 63.8958 655.01 64.9688 654.656 66.3438C654.323 67.7188 654.156 69.3229 654.156 71.1562V71.8125C654.156 74.5 654.531 76.5833 655.281 78.0625C656.031 79.5208 657.375 80.25 659.312 80.25Z" fill="#334155"/>
<defs>
<clipPath id="clip0_11_3">
<rect width="126" height="126" fill="white"/>
</clipPath>
</defs>
</svg>
